<?xml version="1.0" encoding="iso-8859-1"?>
<!-- Generator: Adobe Illustrator 19.0.0, SVG Export Plug-In . SVG Version: 6.00 Build 0)  -->
<svg version="1.1" id="Capa_1" xmlns="http://www.w3.org/2000/svg" xmlns:xlink="http://www.w3.org/1999/xlink" x="0px" y="0px"
	 viewBox="0 0 510.934 510.934" style="enable-background:new 0 0 510.934 510.934;" xml:space="preserve">
<path style="fill:#334A5E;" d="M482.133,386.133V76.8c0-9.6-7.467-17.067-17.067-17.067h-416C39.467,59.733,32,67.2,32,76.8v309.333
	H482.133z"/>
<rect x="65.07" y="92.8" style="fill:#84DBFF;" width="382.93" height="260.27"/>
<path style="fill:#F2F2F2;" d="M0,406.4L0,406.4c0,11.733,9.6,20.267,20.267,20.267h470.4c11.733,0,20.267-9.6,20.267-20.267l0,0
	c0-11.733-9.6-20.267-20.267-20.267h-470.4C9.6,386.133,0,395.733,0,406.4z"/>
<g>
	<polygon style="fill:#FFFFFF;" points="189.867,281.6 131.2,222.933 189.867,165.333 206.933,182.4 166.4,222.933 206.933,264.533 
			"/>
	<polygon style="fill:#FFFFFF;" points="322.133,281.6 380.8,222.933 322.133,165.333 305.067,182.4 345.6,222.933 305.067,264.533 
			"/>
	<polygon style="fill:#FFFFFF;" points="262.4,152.533 224,294.4 249.6,294.4 288,152.533 	"/>
</g>
<g>
	<polygon style="fill:#CDD6E0;" points="446.933,451.201 65.067,451.201 37.333,426.667 474.667,426.667 	"/>
	<path style="fill:#CDD6E0;" d="M284.8,412.8h-57.6c-3.2,0-6.4-3.2-6.4-6.4l0,0c0-3.2,3.2-6.4,6.4-6.4h57.6c3.2,0,6.4,3.2,6.4,6.4
		l0,0C291.2,409.6,288,412.8,284.8,412.8z"/>
</g>
<polygon style="fill:#B8C9D8;" points="474.667,426.667 462.933,437.333 49.067,437.333 37.333,426.667 "/>
<g>
</g>
<g>
</g>
<g>
</g>
<g>
</g>
<g>
</g>
<g>
</g>
<g>
</g>
<g>
</g>
<g>
</g>
<g>
</g>
<g>
</g>
<g>
</g>
<g>
</g>
<g>
</g>
<g>
</g>
</svg>
